<?xml version="1.0" encoding="UTF-8" standalone="no"?><!DOCTYPE svg PUBLIC "-//W3C//DTD SVG 1.1//EN" "http://www.w3.org/Graphics/SVG/1.1/DTD/svg11.dtd"><svg width="100%" height="100%" viewBox="0 0 9789 3650" version="1.1" xmlns="http://www.w3.org/2000/svg" xmlns:xlink="http://www.w3.org/1999/xlink" xml:space="preserve" xmlns:serif="http://www.serif.com/" style="fill-rule:evenodd;clip-rule:evenodd;stroke-linejoin:round;stroke-miterlimit:2;"><g id="LOGO-COMPLETO" serif:id="LOGO COMPLETO"><g id="GL" transform="matrix(2703.018706,0,0,2703.018706,2825.330263,2733.427652)"></g><text x="827.799px" y="2733.428px" style="font-family:'Voga-Medium', 'Voga';font-weight:500;font-size:2703.019px;">GL</text><rect x="3690.682" y="2199.408" width="6097.789" height="108.573" style="fill:#ebebeb;"/><g id="GL1" serif:id="GL" transform="matrix(3.378773,0,0,3.378773,3698.174624,2114.626624)"><text x="0px" y="0px" style="font-family:'Voga-Medium', 'Voga';font-weight:500;font-size:542.051px;">ASESORIA</text><text x="1595.257px" y="0px" style="font-family:'Voga-Medium', 'Voga';font-weight:500;font-size:147.832px;">, C.A.</text><g transform="matrix(147.832129,0,0,147.832129,1758.019678,177.398555)"></g><text x="24.984px" y="177.399px" style="font-family:'Voga-Medium', 'Voga';font-weight:500;font-size:147.832px;">SOL<tspan x="188.782px 248.654px " y="177.399px 177.399px ">UC</tspan>IONES FIN<tspan x="726.151px " y="177.399px ">A</tspan>NCIERAS <tspan x="1179.257px 1232.772px 1257.756px " y="177.399px 177.399px 177.399px ">Y C</tspan>ONT<tspan x="1482.017px 1541.15px " y="177.399px 177.399px ">AB</tspan>LES</text></g><path id="VERDE" d="M1824.538,0c1006.99,0 1824.538,817.548 1824.538,1824.538c0,1006.99 -817.548,1824.538 -1824.538,1824.538c-1006.99,0 -1824.538,-817.548 -1824.538,-1824.538c-0,-1006.99 817.548,-1824.538 1824.538,-1824.538Zm0,185.833c-904.426,0 -1638.705,734.279 -1638.705,1638.705c0,904.426 734.279,1638.705 1638.705,1638.705c904.426,0 1638.705,-734.279 1638.705,-1638.705c0,-904.426 -734.279,-1638.705 -1638.705,-1638.705Z" style="fill:#06a506;"/><path id="AZUL" d="M1823.693,172.476c911.332,0 1651.217,739.886 1651.217,1651.217c0,911.332 -739.886,1651.217 -1651.217,1651.217c-911.332,0 -1651.217,-739.886 -1651.217,-1651.217c-0,-911.332 739.886,-1651.217 1651.217,-1651.217Zm0,168.939c-818.092,0 -1482.279,664.187 -1482.279,1482.279c-0,818.092 664.187,1482.279 1482.279,1482.279c818.092,0 1482.279,-664.187 1482.279,-1482.279c0,-818.092 -664.187,-1482.279 -1482.279,-1482.279Z" style="fill:#3a3aff;"/></g></svg>